<svg width="1024" height="1024" viewBox="0 0 1024 1024" fill="none" xmlns="http://www.w3.org/2000/svg"><g clip-path="url(#clip0)">  <rect class="cls-2" width="1024" height="1024"  fill="none"/>  <circle class="cls-4" cx="512" cy="251" r="165" fill="#0057cb"/>  <path class="cls-3" d="M560,491h128c97.14,0,176,78.86,176,176v74c0,97.14-78.86,176-176,176h-128V491h0Z" fill="#578bfe"/>  <path class="cls-1" d="M426,491h38l-128,426H208c-26.51,0-48-21.49-48-48v-112c0-146.91,119.09-266,266-266Z" fill="#85a8fe"/>  <path class="cls-4" d="M464,491h96c97.14,0,176,78.86,176,176v74c0,97.14-78.86,176-176,176h-224c-26.49,0-48-21.51-48-48v-202c0-97.14,78.86-176,176-176Z" fill="#0057cb"/></g>  <defs><clipPath id="clip0"><rect width="1024" height="1024" fill="white"/></clipPath></defs></svg>