<?xml version="1.0" encoding="utf-8"?>
<!-- Generator: Adobe Illustrator 26.0.0, SVG Export Plug-In . SVG Version: 6.00 Build 0)  -->
<svg version="1.1" id="Layer_1" xmlns="http://www.w3.org/2000/svg" xmlns:xlink="http://www.w3.org/1999/xlink" x="0px" y="0px"
	 viewBox="0 0 512 512" style="enable-background:new 0 0 512 512;" xml:space="preserve">
<style type="text/css">
	.st0{stroke:#686B70;stroke-width:24;stroke-miterlimit:10;}
</style>
<g transform="translate(0.000000,512.000000) scale(0.100000,-0.100000)">
	<path class="st0" d="M1802.6,4951c-38.2-15.6-74.6-55-84.9-92.5c-18.7-68.7,20.5-134.7,103.5-176.8c15.9-8.2,28-17.4,28-22
		c0-3.7-36.4-20.2-81.2-37.6c-314.4-116.4-643.7-347.2-864.8-603.7C627.2,3695.9,463,3339.5,396.8,2918.1
		c-22.4-145.7-22.4-459,0-604.7c123.1-786.1,633.4-1418.2,1377.9-1707.7c126.9-48.6,334-104.4,419.8-111.8
		c53.2-4.6,64.4-2.7,92.4,16.5c49.4,33,69,65,69,110.9s-23.3,91.6-58.8,117.3c-13.1,9.2-67.2,24.7-121.3,35.7
		c-398.3,80.6-781.7,301.4-1049.5,607.4c-238.8,272.1-385.3,579-449.6,945.5c-22.4,128.3-22.4,448.9,0,577.2
		c99.8,566.2,420.7,1035.2,904,1322c114.7,67.8,362,180.5,350.8,159.4c-52.2-97.1-65.3-133.8-59.7-164.9
		c14.9-94.4,114.7-144.8,200.6-100.8c38.2,19.2,49.4,33.9,133.4,181.4c139.9,242.8,150.2,264.8,149.3,309.7
		c-0.9,68.7-23.3,88.9-247.2,221.7C1895,4959.3,1857.7,4973.9,1802.6,4951z"/>
	<path class="st0" d="M2847.4,4722c-40.1-24.7-53.2-40.3-65.3-81.5c-12.1-42.1,1.9-92.5,35.4-129.2c22.4-24.7,41-31.1,142.7-54.1
		c784.5-173.2,1348-751.2,1493.5-1530c28.9-152.1,28.9-470.9,0-623c-103.5-555.2-422.6-1016.9-899.3-1299.1
		c-114.7-67.8-361-180.5-350.8-160.3c59.7,117.3,65.3,133.8,59.7,165.8c-14.9,94.4-114.7,144.8-200.6,100.8
		c-39.2-20.2-49.4-33.9-156.7-222.6c-63.4-110.9-119.4-216.2-124.1-233.6c-10.3-37.6,0.9-85.2,27.1-116.4
		c9.3-10.1,108.2-74.2,221.1-142C3223.4,282.3,3237.4,275,3283.1,275c80.2,0,137.1,55,137.1,132.8c0,55.9-18.7,83.4-85.8,128.3
		c-26.1,17.4-47.6,33.9-48.5,36.6c0,2.7,36.4,18.3,82.1,35.7C4482.8,1037.2,5039.7,2274,4615.2,3380.7
		c-261.2,683.4-877.8,1201.1-1601.7,1345.8C2918.3,4745.8,2886.6,4744.9,2847.4,4722z"/>
	<path class="st0" d="M2399.7,3935.9c-268.7-55.9-487.9-225.4-606.4-469.1c-54.1-111.8-74.6-200.6-81.2-350l-5.6-126.4l-26.1-13.7
		c-46.6-22.9-118.5-102.6-150.2-165.8l-30.8-62.3v-526.8V1695l21.5-53.1c26.1-61.4,104.5-149.3,165.1-184.1
		c90.5-52.2,84-52.2,905.8-49.5l754.7,2.7l54.1,21.1c61.6,24.7,152.1,101.7,186.6,160.3c53.2,89.8,54.1,96.2,51.3,648.6
		c-2.8,506.6-2.8,507.5-24.3,553.4c-31.7,67.8-87.7,135.6-139.9,167.7l-45.7,29.3l-5.6,126.4c-6.5,148.4-27.1,237.3-81.2,349.1
		C3170.2,3819.6,2778.4,4013.8,2399.7,3935.9z M2701.9,3660.2c264.9-66,443.1-293.2,444-565.3V3028h-578.4h-578.4v66.9
		c0.9,270.3,178.2,497.5,440.3,565.3C2518.1,3683.1,2612.4,3683.1,2701.9,3660.2z M3328.8,2722l31.7-31.1V2220
		c0-515.8,1.9-495.6-56-525c-41-21.1-1432.9-21.1-1473.9,0c-57.8,29.3-56,9.2-56,525v470.9l31.7,31.1l31.7,31.1h729.5h729.5
		L3328.8,2722z"/>
	<path class="st0" d="M2496.7,2427.9c-60.6-35.7-70.9-68.7-67.2-222.6c2.8-112.7,5.6-131.9,22.4-153.9
		c34.5-45.8,67.2-63.2,115.7-63.2c48.5,0,81.2,17.4,115.7,63.2c17.7,22,19.6,41.2,22.4,157.6c2.8,123.7,1.9,133.8-18.7,169.5
		C2646.9,2448.1,2566.7,2469.2,2496.7,2427.9z"/>
</g>
</svg>
